Movie Name: Kiss Kiss Bang Bang
Release Title: Kiss Kiss Bang Bang.[Exclusive].BRRip.720p.Dual Audio [Eng-Hindi]~Harshad
Release Date: 14 September 2005 (France)/11 November 2005 (USA)
Release Length: 1h 42mn
Taglines: A bad week in a tough town.
Storyline: A murder mystery brings together a private eye, a struggling actress, and a thief masquerading as an actor. 


Cast

Robert Downey, Jr. - Harry Lockhart
Val Kilmer         - "Gay" Perry van Shrike
Michelle Monaghan  - Harmony Faith Lane
Corbin Bernsen     - Harlan Dexter
Dash Mihok         - Mr. Frying Pan
Ali Hillis         - Marleah
Larry Miller       - Dabney Shaw
Rockmond Dunbar    - Mr. Fire
Shannyn Sossamon   - Pink Hair Girl
Angela Lindvall    - Flicka



Info


Genre: Action | Comedy | Crime 
Language: English ,Hindi
Original Source: Blu ray
Total Size: 1.85 GB 
Encoder: Harshad (HD Desi Rockers)

General
Complete name                    : Kiss Kiss Bang Bang.[Exclusive].BRRip.720p.Dual Audio [Eng-Hindi]~Harshad.mkv
Format                           : Matroska
File size                        : 1.85 GiB
Duration                         : 1h 42mn
Overall bit rate                 : 2 576 Kbps
Movie name                       : Kiss.Kiss.Bang.Bang.2005.m-720p.AC3.x264~RKO
Encoded date                     : UTC 2011-12-18 04:37:25
Writing application              : mkvmerge v4.8.0 ('I Got The...') built on May 24 2011 03:12:58
Writing library                  : libebml v1.2.0 + libmatroska v1.1.0



Video
ID                               : 1
Format                           : AVC
Format/Info                      : Advanced Video Codec
Format profile                   : High@L3.1
Format settings, CABAC           : Yes
Format settings, ReFrames        : 4 frames
Muxing mode                      : Container profile=Unknown@3.1
Codec ID                         : V_MPEG4/ISO/AVC
Duration                         : 1h 42mn
Bit rate                         : 1 999 Kbps
Width                            : 1 280 pixels
Height                           : 528 pixels
Display aspect ratio             : 2.35:1
Frame rate                       : 23.976 fps
Color space                      : YUV
Chroma subsampling               : 4:2:0
Bit depth                        : 8 bits
Scan type                        : Progressive
Bits/(Pixel*Frame)               : 0.123
Stream size                      : 1.40 GiB (76%)
Writing library                  : x264 core 67 r1173M f6d3166



Audio #1
ID                               : 2
Format                           : AC-3
Format/Info                      : Audio Coding 3
Mode extension                   : CM (complete main)
Codec ID                         : A_AC3
Duration                         : 1h 42mn
Bit rate mode                    : Constant
Bit rate                         : 320 Kbps
Channel(s)                       : 6 channels
Channel positions                : Front: L C R, Side: L R, LFE
Sampling rate                    : 48.0 KHz
Stream size                      : 235 MiB (12%)
Title                            : Eng_by_Harshad



Audio #2
ID                               : 3
Format                           : MPEG Audio
Format version                   : Version 1
Format profile                   : Layer 3
Codec ID                         : A_MPEG/L3
Codec ID/Hint                    : MP3
Duration                         : 1h 42mn
Bit rate mode                    : Constant
Bit rate                         : 256 Kbps
Channel(s)                       : 2 channels
Sampling rate                    : 44.1 KHz
Stream size                      : 188 MiB (10%)
Title                            : Hindi_by_Harshad
Language                         : Hindi


Screenshots
 
http://img804.imageshack.us/img804/7026/75419988.jpg 
http://img705.imageshack.us/img705/8474/21141011.jpg 
http://img198.imageshack.us/img198/497/63473828.jpg 
http://img705.imageshack.us/img705/4466/70415294.jpg 
http://img46.imageshack.us/img46/7696/98822654.jpg 
http://img576.imageshack.us/img576/597/53576948.jpg